<svg xmlns="http://www.w3.org/2000/svg" viewBox="0 0 48 48" xmlns:xlink="http://www.w3.org/1999/xlink" xml:space="preserve" width="100%" height="100%"><g xmlns="http://www.w3.org/2000/svg" fill="currentColor" transform="scale(3)"><path fill-rule="evenodd" d="M3.17 6.706a5 5 0 0 1 7.103-3.16.5.5 0 1 0 .454-.892A6 6 0 1 0 13.455 5.5a.5.5 0 0 0-.91.417 5 5 0 1 1-9.375.789"></path><path fill-rule="evenodd" d="M8.147.146a.5.5 0 0 1 .707 0l2.5 2.5a.5.5 0 0 1 0 .708l-2.5 2.5a.5.5 0 1 1-.707-.708L10.293 3 8.147.854a.5.5 0 0 1 0-.708"></path></g></svg>